<svg width="24" height="24" viewBox="0 0 24 24" fill="none" xmlns="http://www.w3.org/2000/svg">
<path d="M8.75 12H7.25C6.83579 12 6.5 12.3358 6.5 12.75C6.5 13.1642 6.83579 13.5 7.25 13.5H8.75C9.16421 13.5 9.5 13.1642 9.5 12.75C9.5 12.3358 9.16421 12 8.75 12Z" fill="#3188CA"/>
<path d="M19.25 3H17V2.25C17 2.05109 16.921 1.86032 16.7803 1.71967C16.6397 1.57902 16.4489 1.5 16.25 1.5C16.0511 1.5 15.8603 1.57902 15.7197 1.71967C15.579 1.86032 15.5 2.05109 15.5 2.25V3H8.5V2.25C8.5 2.05109 8.42098 1.86032 8.28033 1.71967C8.13968 1.57902 7.94891 1.5 7.75 1.5C7.55109 1.5 7.36032 1.57902 7.21967 1.71967C7.07902 1.86032 7 2.05109 7 2.25V3H4.75C4.28587 3 3.84075 3.18437 3.51256 3.51256C3.18437 3.84075 3 4.28587 3 4.75V19.25C3 19.7141 3.18437 20.1592 3.51256 20.4874C3.84075 20.8156 4.28587 21 4.75 21H19.25C19.7141 21 20.1592 20.8156 20.4874 20.4874C20.8156 20.1592 21 19.7141 21 19.25V4.75C21 4.28587 20.8156 3.84075 20.4874 3.51256C20.1592 3.18437 19.7141 3 19.25 3ZM19.5 19.25C19.5 19.3163 19.4737 19.3799 19.4268 19.4268C19.3799 19.4737 19.3163 19.5 19.25 19.5H4.75C4.6837 19.5 4.62011 19.4737 4.57322 19.4268C4.52634 19.3799 4.5 19.3163 4.5 19.25V8.5H19.25C19.3352 8.49808 19.4195 8.48289 19.5 8.455V19.25ZM19.5 7.045C19.4195 7.01711 19.3352 7.00192 19.25 7H4.5V4.75C4.5 4.6837 4.52634 4.62011 4.57322 4.57322C4.62011 4.52634 4.6837 4.5 4.75 4.5H7V4.75C7 4.94891 7.07902 5.13968 7.21967 5.28033C7.36032 5.42098 7.55109 5.5 7.75 5.5C7.94891 5.5 8.13968 5.42098 8.28033 5.28033C8.42098 5.13968 8.5 4.94891 8.5 4.75V4.5H15.5V4.75C15.5 4.94891 15.579 5.13968 15.7197 5.28033C15.8603 5.42098 16.0511 5.5 16.25 5.5C16.4489 5.5 16.6397 5.42098 16.7803 5.28033C16.921 5.13968 17 4.94891 17 4.75V4.5H19.25C19.3163 4.5 19.3799 4.52634 19.4268 4.57322C19.4737 4.62011 19.5 4.6837 19.5 4.75V7.045Z" fill="#3188CA"/>
</svg>
