<svg width="24" height="24" viewBox="0 0 24 24" fill="none" xmlns="http://www.w3.org/2000/svg">
<path d="M13.0597 11.9997L19.2597 5.79968C19.3334 5.73102 19.3925 5.64822 19.4335 5.55622C19.4745 5.46422 19.4965 5.36491 19.4983 5.26421C19.5001 5.1635 19.4815 5.06348 19.4438 4.97009C19.4061 4.8767 19.3499 4.79187 19.2787 4.72065C19.2075 4.64943 19.1227 4.59328 19.0293 4.55556C18.9359 4.51784 18.8359 4.49932 18.7352 4.50109C18.6345 4.50287 18.5351 4.52491 18.4431 4.5659C18.3511 4.6069 18.2683 4.666 18.1997 4.73968L11.9997 10.9397L5.79968 4.73968C5.73102 4.666 5.64822 4.6069 5.55622 4.5659C5.46422 4.52491 5.36491 4.50287 5.26421 4.50109C5.1635 4.49932 5.06348 4.51784 4.97009 4.55556C4.8767 4.59328 4.79186 4.64943 4.72065 4.72065C4.64943 4.79187 4.59328 4.8767 4.55556 4.97009C4.51784 5.06348 4.49932 5.1635 4.50109 5.26421C4.50287 5.36491 4.52491 5.46422 4.5659 5.55622C4.6069 5.64822 4.666 5.73102 4.73968 5.79968L10.9397 11.9997L4.73968 18.1997C4.60044 18.3409 4.52239 18.5313 4.52239 18.7297C4.52239 18.928 4.60044 19.1184 4.73968 19.2597C4.88111 19.399 5.07116 19.4779 5.26968 19.4797C5.36818 19.4799 5.46574 19.4605 5.55672 19.4228C5.64769 19.385 5.73027 19.3296 5.79968 19.2597L11.9997 13.0597L18.1997 19.2597C18.2691 19.3296 18.3517 19.385 18.4427 19.4228C18.5336 19.4605 18.6312 19.4799 18.7297 19.4797C18.9282 19.4779 19.1183 19.399 19.2597 19.2597C19.3989 19.1184 19.477 18.928 19.477 18.7297C19.477 18.5313 19.3989 18.3409 19.2597 18.1997L13.0597 11.9997Z" fill="#3188CA"/>
</svg>
