<svg width="32" height="32" viewBox="0 0 32 32" fill="none" xmlns="http://www.w3.org/2000/svg">
<path d="M29.5131 24.1067L18.6665 6.80004C18.5769 6.65798 18.453 6.54076 18.3062 6.4592C18.1594 6.37764 17.9944 6.33437 17.8265 6.33338C17.6583 6.33312 17.4928 6.37586 17.3458 6.45754C17.1988 6.53921 17.0751 6.65711 16.9865 6.80004L12.9865 13.12L11.9998 11.52C11.9142 11.3704 11.7911 11.2456 11.6427 11.1579C11.4942 11.0703 11.3255 11.0227 11.1531 11.02C10.9808 11.0171 10.8106 11.0585 10.6589 11.1402C10.5071 11.2219 10.3789 11.3412 10.2865 11.4867L2.34648 24.1334C2.25106 24.2847 2.19799 24.4589 2.1928 24.6377C2.18761 24.8165 2.23049 24.9935 2.31697 25.1501C2.40345 25.3067 2.53036 25.4372 2.68447 25.5281C2.83858 25.619 3.01424 25.6668 3.19314 25.6667H28.6665C28.8444 25.6661 29.0189 25.6181 29.172 25.5275C29.3251 25.437 29.4513 25.3073 29.5376 25.1517C29.6239 24.9961 29.6671 24.8204 29.6628 24.6426C29.6585 24.4647 29.6068 24.2913 29.5131 24.14V24.1067ZM5.00648 23.6667L11.1198 13.9534L11.9131 15.2867C11.9567 15.487 12.0616 15.6687 12.2131 15.8067L14.7998 20.2534C14.8655 20.3672 14.9529 20.467 15.0571 20.547C15.1613 20.627 15.2803 20.6857 15.4072 20.7198C15.5341 20.7538 15.6665 20.7625 15.7968 20.7454C15.927 20.7283 16.0527 20.6857 16.1665 20.62C16.2803 20.5544 16.3801 20.4669 16.4601 20.3627C16.5401 20.2585 16.5988 20.1396 16.6329 20.0126C16.6669 19.8857 16.6756 19.7534 16.6585 19.6231C16.6414 19.4928 16.5988 19.3672 16.5331 19.2534L14.0865 15.0467L17.7931 9.18004L26.8598 23.6134L5.00648 23.6667Z" fill="white"/>
</svg>
