<svg width="20" height="20" viewBox="0 0 20 20" fill="none" xmlns="http://www.w3.org/2000/svg">
<path d="M19.497 0.95C19.197 0.35 18.597 0 17.947 0H2.24699C1.59699 0 0.996986 0.35 0.696986 0.95C0.396986 1.55 0.446986 2.2 0.796986 2.75L6.99699 11.8C6.99699 11.85 7.04699 11.85 7.04699 11.85V17.9C7.04699 18.85 7.84699 19.65 8.79699 19.65H11.397C12.347 19.65 13.147 18.85 13.147 17.9V11.85L13.197 11.8L19.397 2.75C19.747 2.2 19.797 1.5 19.497 0.95ZM11.647 17.9C11.647 18.05 11.547 18.15 11.397 18.15H8.79699C8.64699 18.15 8.54699 18.05 8.54699 17.9V12.15H11.647V17.9ZM18.147 1.9L12.197 10.6H7.99699L2.04699 1.9C1.99699 1.8 1.99699 1.7 2.04699 1.65C2.09699 1.6 2.09699 1.5 2.24699 1.5H17.947C18.097 1.5 18.147 1.6 18.147 1.65C18.147 1.7 18.247 1.8 18.147 1.9Z" fill="#3188CA"/>
</svg>
