<svg width="39" height="40" viewBox="0 0 39 40" fill="none" xmlns="http://www.w3.org/2000/svg">
<path d="M37.994 1.9C37.394 0.7 36.194 0 34.894 0H3.49397C2.19397 0 0.993971 0.7 0.393971 1.9C-0.206029 3.1 -0.106028 4.4 0.593971 5.5L12.994 23.6C12.994 23.7 13.094 23.7 13.094 23.7V35.8C13.094 37.7 14.694 39.3 16.594 39.3H21.794C23.694 39.3 25.294 37.7 25.294 35.8V23.7L25.394 23.6L37.794 5.5C38.494 4.4 38.594 3 37.994 1.9ZM22.294 35.8C22.294 36.1 22.094 36.3 21.794 36.3H16.594C16.294 36.3 16.094 36.1 16.094 35.8V24.3H22.294V35.8ZM35.294 3.8L23.394 21.2H14.994L3.09397 3.8C2.99397 3.6 2.99397 3.4 3.09397 3.3C3.19397 3.2 3.19397 3 3.49397 3H34.894C35.194 3 35.294 3.2 35.294 3.3C35.294 3.4 35.494 3.6 35.294 3.8Z" fill="black"/>
</svg>
