<svg width="24" height="24" viewBox="0 0 24 24" fill="none" xmlns="http://www.w3.org/2000/svg">
<path d="M19.75 11H16.85V7.6C16.85 4.75 14.55 2.5 11.75 2.5C8.9 2.5 6.65 4.8 6.65 7.6V11H3.75C3.35 11 3 11.35 3 11.75V19.9C3 20.9 3.8 21.65 4.75 21.65H18.75C19.7 21.65 20.5 20.85 20.5 19.9V11.75C20.5 11.35 20.15 11 19.75 11ZM8.1 7.65C8.1 5.65 9.75 4.05 11.7 4.05C13.7 4.05 15.3 5.7 15.3 7.65V11.05H8.1V7.65ZM19 19.9C19 20.05 18.9 20.15 18.75 20.15H4.75C4.6 20.15 4.5 20.05 4.5 19.9V12.5H7.35H16.1H19V19.9Z" fill="#F2994A"/>
</svg>
