<svg width="32" height="32" viewBox="0 0 32 32" fill="none" xmlns="http://www.w3.org/2000/svg">
<path d="M17 20.6667C16.7348 20.6667 16.4804 20.772 16.2929 20.9596C16.1054 21.1471 16 21.4015 16 21.6667V25.6667C16 25.7551 15.9649 25.8399 15.9024 25.9024C15.8399 25.9649 15.7551 26 15.6667 26H6.33333C6.24493 26 6.16014 25.9649 6.09763 25.9024C6.03512 25.8399 6 25.7551 6 25.6667V6.33333C6 6.24493 6.03512 6.16014 6.09763 6.09763C6.16014 6.03512 6.24493 6 6.33333 6H15.6667C15.7551 6 15.8399 6.03512 15.9024 6.09763C15.9649 6.16014 16 6.24493 16 6.33333V10.3333C16 10.5985 16.1054 10.8529 16.2929 11.0404C16.4804 11.228 16.7348 11.3333 17 11.3333C17.2652 11.3333 17.5196 11.228 17.7071 11.0404C17.8946 10.8529 18 10.5985 18 10.3333V6.33333C18 5.71449 17.7542 5.121 17.3166 4.68342C16.879 4.24583 16.2855 4 15.6667 4H6.33333C5.71449 4 5.121 4.24583 4.68342 4.68342C4.24583 5.121 4 5.71449 4 6.33333V25.6667C4 26.2855 4.24583 26.879 4.68342 27.3166C5.121 27.7542 5.71449 28 6.33333 28H15.6667C16.2855 28 16.879 27.7542 17.3166 27.3166C17.7542 26.879 18 26.2855 18 25.6667V21.6667C18 21.4015 17.8946 21.1471 17.7071 20.9596C17.5196 20.772 17.2652 20.6667 17 20.6667Z" fill="#5F6C7B"/>
<path d="M29.4599 15.2933L24.1266 9.96002C23.9382 9.77436 23.6844 9.67029 23.4199 9.67029C23.1554 9.67029 22.9016 9.77436 22.7132 9.96002C22.6197 10.0524 22.5454 10.1624 22.4948 10.2838C22.4441 10.4051 22.418 10.5352 22.418 10.6667C22.418 10.7981 22.4441 10.9283 22.4948 11.0496C22.5454 11.1709 22.6197 11.281 22.7132 11.3733L26.3466 15.0133H9.05322C8.78801 15.0133 8.53365 15.1187 8.34612 15.3062C8.15858 15.4938 8.05322 15.7481 8.05322 16.0133C8.05322 16.2786 8.15858 16.5329 8.34612 16.7205C8.53365 16.908 8.78801 17.0133 9.05322 17.0133H26.3399L22.7066 20.6667C22.5669 20.8065 22.4718 20.9846 22.4333 21.1785C22.3948 21.3724 22.4146 21.5733 22.4902 21.7559C22.5658 21.9385 22.6938 22.0946 22.8581 22.2045C23.0224 22.3144 23.2156 22.3732 23.4132 22.3733C23.6782 22.3724 23.9321 22.267 24.1199 22.08L29.4532 16.7467C29.5534 16.6542 29.6334 16.5421 29.6884 16.4173C29.7433 16.2925 29.772 16.1578 29.7726 16.0215C29.7733 15.8851 29.7458 15.7501 29.692 15.6249C29.6382 15.4996 29.5592 15.3868 29.4599 15.2933Z" fill="#5F6C7B"/>
</svg>
