<svg width="24" height="24" viewBox="0 0 24 24" fill="none" xmlns="http://www.w3.org/2000/svg">
<path d="M21 9.60997C20.9875 9.54547 20.9656 9.48314 20.935 9.42497V9.38497C20.902 9.32674 20.8617 9.27297 20.815 9.22497L14.815 3.22497C14.767 3.17831 14.7132 3.13798 14.655 3.10497H14.615C14.5499 3.05789 14.4772 3.02237 14.4 2.99997C14.3551 2.9948 14.3099 2.9948 14.265 2.99997H4.75C4.28587 2.99997 3.84075 3.18434 3.51256 3.51253C3.18437 3.84072 3 4.28584 3 4.74997V19.25C3 19.7141 3.18437 20.1592 3.51256 20.4874C3.84075 20.8156 4.28587 21 4.75 21H19.25C19.7141 21 20.1592 20.8156 20.4874 20.4874C20.8156 20.1592 21 19.7141 21 19.25V9.74997C21.0052 9.70344 21.0052 9.65649 21 9.60997ZM15 5.55997L18.44 8.99997H15.25C15.1837 8.99997 15.1201 8.97363 15.0732 8.92674C15.0263 8.87986 15 8.81627 15 8.74997V5.55997ZM19.5 19.25C19.5 19.3163 19.4737 19.3799 19.4268 19.4267C19.3799 19.4736 19.3163 19.5 19.25 19.5H4.75C4.6837 19.5 4.62011 19.4736 4.57322 19.4267C4.52634 19.3799 4.5 19.3163 4.5 19.25V4.74997C4.5 4.68366 4.52634 4.62007 4.57322 4.57319C4.62011 4.52631 4.6837 4.49997 4.75 4.49997H13.5V8.74997C13.5 9.2141 13.6844 9.65922 14.0126 9.9874C14.3408 10.3156 14.7859 10.5 15.25 10.5H19.5V19.25Z" fill="#3188CA"/>
</svg>
