<svg width="32" height="32" viewBox="0 0 32 32" fill="none" xmlns="http://www.w3.org/2000/svg">
<path d="M28 12.8134C27.9833 12.7274 27.9541 12.6443 27.9133 12.5667V12.5134C27.8693 12.4357 27.8155 12.364 27.7533 12.3L19.7533 4.30004C19.6893 4.23783 19.6176 4.18406 19.54 4.14004H19.4867C19.3999 4.07727 19.3029 4.02991 19.2 4.00004C19.1402 3.99315 19.0798 3.99315 19.02 4.00004H6.33333C5.71449 4.00004 5.121 4.24587 4.68342 4.68346C4.24583 5.12104 4 5.71453 4 6.33337V25.6667C4 26.2855 4.24583 26.879 4.68342 27.3166C5.121 27.7542 5.71449 28 6.33333 28H25.6667C26.2855 28 26.879 27.7542 27.3166 27.3166C27.7542 26.879 28 26.2855 28 25.6667V13C28.0069 12.938 28.0069 12.8754 28 12.8134ZM20 7.41337L24.5867 12H20.3333C20.2449 12 20.1601 11.9649 20.0976 11.9024C20.0351 11.8399 20 11.7551 20 11.6667V7.41337ZM26 25.6667C26 25.7551 25.9649 25.8399 25.9024 25.9024C25.8399 25.9649 25.7551 26 25.6667 26H6.33333C6.24493 26 6.16014 25.9649 6.09763 25.9024C6.03512 25.8399 6 25.7551 6 25.6667V6.33337C6 6.24497 6.03512 6.16018 6.09763 6.09767C6.16014 6.03516 6.24493 6.00004 6.33333 6.00004H18V11.6667C18 12.2855 18.2458 12.879 18.6834 13.3166C19.121 13.7542 19.7145 14 20.3333 14H26V25.6667Z" fill="#5F6C7B"/>
</svg>
