<svg width="20" height="20" viewBox="0 0 20 20" fill="none" xmlns="http://www.w3.org/2000/svg">
<path d="M13.5627 6.02083L10.2293 2.6875C9.97933 2.4375 9.60433 2.4375 9.35433 2.6875L6.021 6.02083C5.771 6.27083 5.771 6.64583 6.021 6.89583C6.271 7.14583 6.646 7.14583 6.896 6.89583L9.18766 4.60417V16.6458C9.18766 16.9792 9.47933 17.2708 9.81266 17.2708C10.146 17.2708 10.4377 16.9792 10.4377 16.6458V4.64583L12.7293 6.9375C12.8543 7.0625 13.021 7.10417 13.1877 7.10417C13.3543 7.10417 13.521 7.0625 13.646 6.9375C13.8127 6.64583 13.8127 6.27083 13.5627 6.02083Z" fill="#728293"/>
</svg>
