<svg width="24" height="24" viewBox="0 0 24 24" fill="none" xmlns="http://www.w3.org/2000/svg">
<path d="M20.0702 11.2497H12.7502V3.92969C12.7502 3.73078 12.6712 3.54001 12.5305 3.39936C12.3899 3.25871 12.1991 3.17969 12.0002 3.17969C11.8013 3.17969 11.6105 3.25871 11.4698 3.39936C11.3292 3.54001 11.2502 3.73078 11.2502 3.92969V11.2497H3.93018C3.73126 11.2497 3.5405 11.3287 3.39985 11.4694C3.25919 11.61 3.18018 11.8008 3.18018 11.9997C3.18018 12.1986 3.25919 12.3894 3.39985 12.53C3.5405 12.6707 3.73126 12.7497 3.93018 12.7497H11.2502V20.0697C11.2502 20.2686 11.3292 20.4594 11.4698 20.6C11.6105 20.7407 11.8013 20.8197 12.0002 20.8197C12.1991 20.8197 12.3899 20.7407 12.5305 20.6C12.6712 20.4594 12.7502 20.2686 12.7502 20.0697V12.7497H20.0702C20.2691 12.7497 20.4599 12.6707 20.6005 12.53C20.7412 12.3894 20.8202 12.1986 20.8202 11.9997C20.8202 11.8008 20.7412 11.61 20.6005 11.4694C20.4599 11.3287 20.2691 11.2497 20.0702 11.2497Z" fill="#3188CA"/>
</svg>
