<svg width="32" height="32" viewBox="0 0 32 32" fill="none" xmlns="http://www.w3.org/2000/svg">
<path d="M17.6667 12H14.3333C13.7145 12 13.121 12.2458 12.6834 12.6834C12.2458 13.121 12 13.7145 12 14.3333V25.6667C12 26.2855 12.2458 26.879 12.6834 27.3166C13.121 27.7542 13.7145 28 14.3333 28H17.6667C18.2855 28 18.879 27.7542 19.3166 27.3166C19.7542 26.879 20 26.2855 20 25.6667V14.3333C20 13.7145 19.7542 13.121 19.3166 12.6834C18.879 12.2458 18.2855 12 17.6667 12ZM18 25.64C18 25.7284 17.9649 25.8132 17.9024 25.8757C17.8399 25.9382 17.7551 25.9733 17.6667 25.9733H14.3333C14.2449 25.9733 14.1601 25.9382 14.0976 25.8757C14.0351 25.8132 14 25.7284 14 25.64V14.3067C14 14.2183 14.0351 14.1335 14.0976 14.071C14.1601 14.0085 14.2449 13.9733 14.3333 13.9733H17.6667C17.7551 13.9733 17.8399 14.0085 17.9024 14.071C17.9649 14.1335 18 14.2183 18 14.3067V25.64Z" fill="white"/>
<path d="M7.66667 18H4.33333C3.71449 18 3.121 18.2458 2.68342 18.6834C2.24583 19.121 2 19.7145 2 20.3333V25.6667C2 26.2855 2.24583 26.879 2.68342 27.3166C3.121 27.7542 3.71449 28 4.33333 28H7.66667C8.28551 28 8.879 27.7542 9.31658 27.3166C9.75417 26.879 10 26.2855 10 25.6667V20.3333C10 19.7145 9.75417 19.121 9.31658 18.6834C8.879 18.2458 8.28551 18 7.66667 18ZM8 25.64C8 25.7284 7.96488 25.8132 7.90237 25.8757C7.83986 25.9382 7.75507 25.9733 7.66667 25.9733H4.33333C4.24493 25.9733 4.16014 25.9382 4.09763 25.8757C4.03512 25.8132 4 25.7284 4 25.64V20.3067C4 20.2183 4.03512 20.1335 4.09763 20.071C4.16014 20.0085 4.24493 19.9733 4.33333 19.9733H7.66667C7.75507 19.9733 7.83986 20.0085 7.90237 20.071C7.96488 20.1335 8 20.2183 8 20.3067V25.64Z" fill="white"/>
<path d="M27.6667 4H24.3333C23.7145 4 23.121 4.24583 22.6834 4.68342C22.2458 5.121 22 5.71449 22 6.33333V25.6667C22 26.2855 22.2458 26.879 22.6834 27.3166C23.121 27.7542 23.7145 28 24.3333 28H27.6667C28.2855 28 28.879 27.7542 29.3166 27.3166C29.7542 26.879 30 26.2855 30 25.6667V6.33333C30 5.71449 29.7542 5.121 29.3166 4.68342C28.879 4.24583 28.2855 4 27.6667 4ZM28 25.64C28 25.7284 27.9649 25.8132 27.9024 25.8757C27.8399 25.9382 27.7551 25.9733 27.6667 25.9733H24.3333C24.2449 25.9733 24.1601 25.9382 24.0976 25.8757C24.0351 25.8132 24 25.7284 24 25.64V6.33333C24 6.24493 24.0351 6.16014 24.0976 6.09763C24.1601 6.03512 24.2449 6 24.3333 6H27.6667C27.7551 6 27.8399 6.03512 27.9024 6.09763C27.9649 6.16014 28 6.24493 28 6.33333V25.64Z" fill="white"/>
</svg>
