<svg width="32" height="32" viewBox="0 0 32 32" fill="none" xmlns="http://www.w3.org/2000/svg">
<path d="M7 10H25C25.2652 10 25.5196 9.89464 25.7071 9.70711C25.8946 9.51957 26 9.26522 26 9C26 8.73478 25.8946 8.48043 25.7071 8.29289C25.5196 8.10536 25.2652 8 25 8H7C6.73478 8 6.48043 8.10536 6.29289 8.29289C6.10536 8.48043 6 8.73478 6 9C6 9.26522 6.10536 9.51957 6.29289 9.70711C6.48043 9.89464 6.73478 10 7 10Z" fill="white"/>
<path d="M9 6H23C23.2652 6 23.5196 5.89464 23.7071 5.70711C23.8946 5.51957 24 5.26522 24 5C24 4.73478 23.8946 4.48043 23.7071 4.29289C23.5196 4.10536 23.2652 4 23 4H9C8.73478 4 8.48043 4.10536 8.29289 4.29289C8.10536 4.48043 8 4.73478 8 5C8 5.26522 8.10536 5.51957 8.29289 5.70711C8.48043 5.89464 8.73478 6 9 6Z" fill="white"/>
<path d="M27.6667 16H4.33333C3.71449 16 3.121 16.2458 2.68342 16.6834C2.24583 17.121 2 17.7145 2 18.3333V25.3333C2 25.9522 2.24583 26.5457 2.68342 26.9832C3.121 27.4208 3.71449 27.6667 4.33333 27.6667H27.6667C28.2855 27.6667 28.879 27.4208 29.3166 26.9832C29.7542 26.5457 30 25.9522 30 25.3333V18.3333C30 17.7145 29.7542 17.121 29.3166 16.6834C28.879 16.2458 28.2855 16 27.6667 16ZM28 25.3333C28 25.4217 27.9649 25.5065 27.9024 25.569C27.8399 25.6315 27.7551 25.6667 27.6667 25.6667H4.33333C4.24493 25.6667 4.16014 25.6315 4.09763 25.569C4.03512 25.5065 4 25.4217 4 25.3333V18.3333C4 18.2449 4.03512 18.1601 4.09763 18.0976C4.16014 18.0351 4.24493 18 4.33333 18H27.6667C27.7551 18 27.8399 18.0351 27.9024 18.0976C27.9649 18.1601 28 18.2449 28 18.3333V25.3333Z" fill="white"/>
<path d="M5 14H27C27.2652 14 27.5196 13.8946 27.7071 13.7071C27.8946 13.5196 28 13.2652 28 13C28 12.7348 27.8946 12.4804 27.7071 12.2929C27.5196 12.1054 27.2652 12 27 12H5C4.73478 12 4.48043 12.1054 4.29289 12.2929C4.10536 12.4804 4 12.7348 4 13C4 13.2652 4.10536 13.5196 4.29289 13.7071C4.48043 13.8946 4.73478 14 5 14Z" fill="white"/>
</svg>
