<svg width="18" height="19" viewBox="0 0 18 19" fill="none" xmlns="http://www.w3.org/2000/svg">
<path d="M17.7508 5.8L15.4508 1C15.1508 0.4 14.5508 0 13.9008 0H1.80078C0.850782 0 0.0507812 0.8 0.0507812 1.75V16.3C0.0507812 17.25 0.850782 18.05 1.80078 18.05H16.2008C17.1508 18.05 17.9508 17.25 17.9508 16.3V6.55C17.9508 6.3 17.9008 6.05 17.7508 5.8ZM4.25078 1.5H12.7508V4.5C12.7508 4.65 12.6508 4.75 12.5008 4.75H4.50078C4.35078 4.75 4.25078 4.65 4.25078 4.5V1.5ZM16.4508 16.35C16.4508 16.5 16.3508 16.6 16.2008 16.6H1.80078C1.65078 16.6 1.55078 16.5 1.55078 16.35V1.75C1.55078 1.65 1.70078 1.5 1.80078 1.5H2.75078V4.5C2.75078 5.45 3.55078 6.25 4.50078 6.25H12.5008C13.4508 6.25 14.2508 5.45 14.2508 4.5V2L16.4008 6.45C16.4008 6.5 16.4508 6.5 16.4508 6.55V16.35Z" fill="white"/>
<path d="M9 8.25C7.2 8.25 5.75 9.7 5.75 11.5C5.75 13.3 7.2 14.75 9 14.75C10.8 14.75 12.25 13.3 12.25 11.5C12.25 9.7 10.8 8.25 9 8.25ZM9 13.25C8.05 13.25 7.25 12.45 7.25 11.5C7.25 10.55 8.05 9.75 9 9.75C9.95 9.75 10.75 10.55 10.75 11.5C10.75 12.45 9.95 13.25 9 13.25Z" fill="white"/>
</svg>
