<svg width="18" height="19" viewBox="0 0 18 19" fill="none" xmlns="http://www.w3.org/2000/svg">
<path fill-rule="evenodd" clip-rule="evenodd" d="M15.4508 1L17.7508 5.8C17.9008 6.05 17.9508 6.3 17.9508 6.55V16.3C17.9508 17.25 17.1508 18.05 16.2008 18.05H1.80078C0.850782 18.05 0.0507812 17.25 0.0507812 16.3V1.75C0.0507812 0.8 0.850782 0 1.80078 0H13.9008C14.5508 0 15.1508 0.4 15.4508 1ZM12.7508 1.5H4.25078V4.5C4.25078 4.65 4.35078 4.75 4.50078 4.75H12.5008C12.6508 4.75 12.7508 4.65 12.7508 4.5V1.5ZM16.2008 16.6C16.3508 16.6 16.4508 16.5 16.4508 16.35V6.55C16.4508 6.525 16.4383 6.5125 16.4258 6.5C16.4133 6.4875 16.4008 6.475 16.4008 6.45L14.2508 2V4.5C14.2508 5.45 13.4508 6.25 12.5008 6.25H4.50078C3.55078 6.25 2.75078 5.45 2.75078 4.5V1.5H1.80078C1.70078 1.5 1.55078 1.65 1.55078 1.75V16.35C1.55078 16.5 1.65078 16.6 1.80078 16.6H16.2008ZM5.75079 11.5C5.75079 9.7 7.20079 8.25 9.00079 8.25C10.8008 8.25 12.2508 9.7 12.2508 11.5C12.2508 13.3 10.8008 14.75 9.00079 14.75C7.20079 14.75 5.75079 13.3 5.75079 11.5ZM7.25079 11.5C7.25079 12.45 8.05079 13.25 9.00079 13.25C9.95079 13.25 10.7508 12.45 10.7508 11.5C10.7508 10.55 9.95079 9.75 9.00079 9.75C8.05079 9.75 7.25079 10.55 7.25079 11.5Z" fill="black"/>
</svg>
