<svg width="24" height="24" viewBox="0 0 24 24" fill="none" xmlns="http://www.w3.org/2000/svg">
<path d="M20.78 19.72L15.66 14.6C16.9717 13.0158 17.6229 10.9872 17.4782 8.93554C17.3336 6.88385 16.4044 4.96668 14.8834 3.58213C13.3624 2.19757 11.3666 1.45201 9.31041 1.50025C7.25419 1.54849 5.29556 2.38683 3.8412 3.8412C2.38683 5.29556 1.54849 7.25419 1.50025 9.31041C1.45201 11.3666 2.19757 13.3624 3.58213 14.8834C4.96668 16.4044 6.88385 17.3336 8.93554 17.4782C10.9872 17.6229 13.0158 16.9717 14.6 15.66L19.72 20.78C19.8606 20.9205 20.0513 20.9994 20.25 20.9994C20.4488 20.9994 20.6394 20.9205 20.78 20.78C20.8502 20.7107 20.9059 20.6282 20.9439 20.5372C20.9819 20.4462 21.0015 20.3486 21.0015 20.25C21.0015 20.1514 20.9819 20.0538 20.9439 19.9628C20.9059 19.8718 20.8502 19.7893 20.78 19.72ZM9.50002 16C8.21444 16 6.95773 15.6188 5.88881 14.9046C4.81989 14.1903 3.98677 13.1752 3.4948 11.9875C3.00283 10.7997 2.87411 9.49281 3.12492 8.23193C3.37572 6.97106 3.99478 5.81287 4.90383 4.90383C5.81287 3.99478 6.97106 3.37572 8.23193 3.12492C9.49281 2.87411 10.7997 3.00283 11.9875 3.4948C13.1752 3.98677 14.1903 4.81989 14.9046 5.88881C15.6188 6.95773 16 8.21444 16 9.50002C16 11.2239 15.3152 12.8772 14.0962 14.0962C12.8772 15.3152 11.2239 16 9.50002 16Z" fill="#3188CA"/>
</svg>
