<svg width="14" height="15" viewBox="0 0 14 15" fill="none" xmlns="http://www.w3.org/2000/svg">
<path d="M12.4502 7.26859L13.3334 6.75874C13.5949 6.60783 13.7216 6.29993 13.6435 6.00837C13.3272 4.82872 12.7048 3.77431 11.8667 2.93529C11.6537 2.72205 11.3238 2.67884 11.0628 2.82958L10.1812 3.33876C9.89482 3.13382 9.58922 2.95714 9.26871 2.81122V1.79184C9.2687 1.64501 9.22017 1.5023 9.13067 1.3859C9.04118 1.26951 8.91574 1.18594 8.77384 1.14819C7.61555 0.840125 6.38529 0.839737 5.22556 1.14816C4.9338 1.22577 4.73063 1.4899 4.73063 1.79181V2.81119C4.41012 2.95711 4.10453 3.13379 3.81814 3.33874L2.93655 2.82956C2.67555 2.67881 2.34563 2.72202 2.13262 2.93526C1.29454 3.77428 0.672197 4.82867 0.355893 6.00834C0.277705 6.2999 0.404459 6.6078 0.6659 6.75872L1.5491 7.26859C1.51526 7.61909 1.51526 7.97204 1.5491 8.32254L0.6659 8.83238C0.404459 8.9833 0.277705 9.29119 0.355893 9.58276C0.672197 10.7624 1.29454 11.8168 2.13262 12.6558C2.34563 12.8691 2.67555 12.9123 2.93655 12.7615L3.81814 12.2524C4.10452 12.4573 4.41012 12.634 4.73063 12.7799V13.7993C4.73065 13.9461 4.77918 14.0888 4.86867 14.2052C4.95817 14.3216 5.08361 14.4052 5.2255 14.4429C6.38379 14.751 7.61406 14.7514 8.77379 14.4429C9.06555 14.3653 9.26871 14.1012 9.26871 13.7993V12.7799C9.58922 12.634 9.89481 12.4573 10.1812 12.2524L11.0628 12.7616C11.3238 12.9123 11.6537 12.8691 11.8667 12.6559C12.7048 11.8168 13.3272 10.7624 13.6435 9.58278C13.7216 9.29122 13.5949 8.98332 13.3334 8.83241L12.4502 8.32256C12.4841 7.9717 12.4841 7.61945 12.4502 7.26859ZM10.9891 9.01649L12.2045 9.71791C11.9859 10.3084 11.6684 10.8573 11.2657 11.3413L10.05 10.6393C9.1629 11.3992 9.03323 11.4735 7.93741 11.8605V13.2639C7.31674 13.3699 6.68261 13.3699 6.06194 13.2639V11.8605C4.96625 11.4736 4.83611 11.3989 3.94933 10.6393L2.73369 11.3413C2.33095 10.8573 2.01347 10.3084 1.79485 9.71791L3.01022 9.01649C2.79859 7.87102 2.79848 7.72069 3.01022 6.57466L1.79485 5.87324C2.01257 5.28443 2.33043 4.7347 2.73369 4.24987L3.94933 4.95184C4.83645 4.19196 4.96614 4.1176 6.06194 3.73065V2.32725C6.68261 2.2213 7.31674 2.2213 7.93741 2.32725V3.73068C9.03309 4.1176 9.16323 4.19226 10.05 4.95187L11.2657 4.2499C11.6684 4.73386 11.9859 5.28282 12.2045 5.87327L10.9891 6.57469C11.2008 7.72019 11.2009 7.87046 10.9891 9.01649ZM6.99967 5.13291C5.53146 5.13291 4.337 6.32736 4.337 7.79558C4.337 9.26379 5.53146 10.4582 6.99967 10.4582C8.46789 10.4582 9.66234 9.26379 9.66234 7.79558C9.66234 6.32736 8.46789 5.13291 6.99967 5.13291ZM6.99967 9.12691C6.26555 9.12691 5.66834 8.5297 5.66834 7.79558C5.66834 7.06148 6.26555 6.46424 6.99967 6.46424C7.73379 6.46424 8.33101 7.06148 8.33101 7.79558C8.33101 8.5297 7.73379 9.12691 6.99967 9.12691Z" fill="#3188CA"/>
</svg>
