<svg width="24" height="24" viewBox="0 0 24 24" fill="none" xmlns="http://www.w3.org/2000/svg">
<path d="M21.7052 17.9052C20.9903 17.8941 20.2903 18.1094 19.7052 18.5202C19.3459 18.771 18.9183 18.9055 18.4802 18.9055C18.042 18.9055 17.6144 18.771 17.2552 18.5202C16.6632 18.1246 15.9672 17.9135 15.2552 17.9135C14.5432 17.9135 13.8472 18.1246 13.2552 18.5202C12.9003 18.7797 12.4697 18.915 12.0302 18.9052C11.5775 18.92 11.1338 18.7768 10.7752 18.5002C10.1894 18.0906 9.48982 17.8755 8.77518 17.8852C8.06034 17.8741 7.36032 18.0894 6.77518 18.5002C6.42148 18.7621 5.9901 18.8976 5.55018 18.8852C5.10341 18.9026 4.66412 18.7667 4.30518 18.5002C3.72004 18.0894 3.02001 17.8741 2.30518 17.8852C2.10626 17.8852 1.9155 17.9642 1.77485 18.1048C1.63419 18.2455 1.55518 18.4363 1.55518 18.6352C1.55518 18.8341 1.63419 19.0248 1.77485 19.1655C1.9155 19.3062 2.10626 19.3852 2.30518 19.3852C2.73784 19.3862 3.15801 19.5303 3.50018 19.7952C4.08711 20.2017 4.78627 20.4149 5.50018 20.4052C6.21403 20.4146 6.9131 20.2014 7.50018 19.7952C7.85169 19.5322 8.28131 19.3949 8.72018 19.4052C9.1603 19.3968 9.59089 19.5339 9.94518 19.7952C10.5379 20.1888 11.2336 20.3988 11.9452 20.3988C12.6567 20.3988 13.3524 20.1888 13.9452 19.7952C14.3033 19.5416 14.7313 19.4054 15.1702 19.4054C15.609 19.4054 16.037 19.5416 16.3952 19.7952C16.991 20.1929 17.6913 20.4051 18.4077 20.4051C19.124 20.4051 19.8243 20.1929 20.4202 19.7952C20.7745 19.5339 21.205 19.3968 21.6452 19.4052C21.8441 19.4052 22.0349 19.3262 22.1755 19.1855C22.3162 19.0448 22.3952 18.8541 22.3952 18.6552C22.3952 18.4563 22.3162 18.2655 22.1755 18.1248C22.0349 17.9842 21.8441 17.9052 21.6452 17.9052H21.7052Z" fill="white"/>
<path d="M3.5949 15.4502C3.65103 15.5897 3.74778 15.7091 3.8726 15.7929C3.99742 15.8767 4.14455 15.9211 4.2949 15.9202H19.7049C19.8531 15.9202 19.998 15.8766 20.1216 15.7948C20.2452 15.713 20.342 15.5966 20.3999 15.4602L22.3999 10.7052C22.4475 10.5917 22.4664 10.4683 22.455 10.3458C22.4436 10.2232 22.4023 10.1054 22.3346 10.0026C22.2669 9.89987 22.175 9.81534 22.0669 9.7565C21.9588 9.69765 21.8379 9.6663 21.7149 9.66521H21.5399L17.0799 4.70021C17.01 4.62338 16.9252 4.5616 16.8306 4.51862C16.7361 4.47564 16.6337 4.45236 16.5299 4.45021C16.4295 4.44954 16.3301 4.47065 16.2386 4.51208C16.1471 4.55351 16.0656 4.61429 15.9999 4.69021L14.5999 6.19021L14.4099 6.00021C14.342 5.91897 14.2571 5.8536 14.1612 5.80868C14.0653 5.76376 13.9608 5.74039 13.8549 5.74021C13.7492 5.73842 13.6442 5.75885 13.5469 5.8002C13.4496 5.84154 13.362 5.90287 13.2899 5.98021L10.0749 9.44521C10.0749 9.47021 10.0749 9.49521 10.0299 9.52021H9.9099V7.68021H9.9999C10.1988 7.68021 10.3896 7.60119 10.5302 7.46054C10.6709 7.31989 10.7499 7.12912 10.7499 6.93021C10.7499 6.7313 10.6709 6.54053 10.5302 6.39988C10.3896 6.25923 10.1988 6.18021 9.9999 6.18021H4.1099C3.91099 6.18021 3.72022 6.25923 3.57957 6.39988C3.43892 6.54053 3.3599 6.7313 3.3599 6.93021V9.43021H2.3049C2.18093 9.4264 2.05803 9.45424 1.9478 9.51111C1.83757 9.56797 1.74365 9.65198 1.6749 9.75521C1.60601 9.8577 1.56278 9.97525 1.54886 10.0979C1.53493 10.2206 1.55072 10.3449 1.5949 10.4602L3.5949 15.4502ZM16.4999 6.31521L19.4999 9.64021L17.4999 9.61021L15.5549 7.34021L16.4999 6.31521ZM13.8049 7.61521L13.9349 7.77021C13.9649 7.80521 13.9799 7.84521 14.0149 7.88021H14.0449L15.4999 9.58521L11.9999 9.54521L13.8049 7.61521ZM4.8449 7.68021H8.3949V9.42021H4.8599L4.8449 7.68021ZM20.5849 11.1502L19.2099 14.4202H4.7999L3.4049 10.9202L20.5849 11.1502Z" fill="white"/>
</svg>
