<svg width="32" height="32" viewBox="0 0 32 32" fill="none" xmlns="http://www.w3.org/2000/svg">
<path d="M29.9201 11.3667V10.3333C29.9201 9.7145 29.6742 9.12101 29.2367 8.68343C28.7991 8.24584 28.2056 8.00001 27.5867 8.00001H15.7001C15.6378 7.99937 15.5768 7.98162 15.5239 7.94871C15.471 7.91579 15.4282 7.86896 15.4001 7.81334L14.1401 5.29334C13.948 4.90418 13.6507 4.57668 13.2818 4.34806C12.913 4.11943 12.4874 3.99885 12.0534 4.00001H4.41341C3.79457 4.00001 3.20108 4.24584 2.7635 4.68343C2.32591 5.12101 2.08008 5.7145 2.08008 6.33334V7.00001V15.7333V25.6667C2.08008 26.2855 2.32591 26.879 2.7635 27.3166C3.20108 27.7542 3.79457 28 4.41341 28H27.5867C28.2056 28 28.7991 27.7542 29.2367 27.3166C29.6742 26.879 29.9201 26.2855 29.9201 25.6667V20.0933V11.3667ZM27.9201 25.6667C27.9201 25.7551 27.885 25.8399 27.8224 25.9024C27.7599 25.9649 27.6751 26 27.5867 26H4.41341C4.32501 26 4.24022 25.9649 4.17771 25.9024C4.1152 25.8399 4.08008 25.7551 4.08008 25.6667V10H9.41341C9.47492 10.0003 9.53508 10.0181 9.58698 10.0511C9.63887 10.0841 9.68038 10.1311 9.70674 10.1867L10.9734 12.7133C11.165 13.0967 11.4587 13.4198 11.8222 13.6468C12.1857 13.8738 12.6048 13.9961 13.0334 14H27.9201V25.6667ZM27.9201 12H13.0334C12.9711 11.9994 12.9102 11.9816 12.8573 11.9487C12.8044 11.9158 12.7615 11.869 12.7334 11.8133L11.4734 9.29334C11.2814 8.90418 10.984 8.57668 10.6152 8.34806C10.2463 8.11943 9.82071 7.99885 9.38674 8.00001H4.05341V6.33334C4.05341 6.24494 4.08853 6.16015 4.15104 6.09764C4.21355 6.03513 4.29834 6.00001 4.38674 6.00001H12.0534C12.1149 6.00035 12.1751 6.01805 12.227 6.05107C12.2789 6.0841 12.3204 6.1311 12.3467 6.18667L13.6134 8.71334C13.807 9.10077 14.1049 9.42647 14.4735 9.65379C14.8422 9.8811 15.267 10.001 15.7001 10H27.5867C27.6751 10 27.7599 10.0351 27.8224 10.0976C27.885 10.1602 27.9201 10.2449 27.9201 10.3333V12Z" fill="#5F6C7B"/>
</svg>
