<svg width="32" height="32" viewBox="0 0 32 32" fill="none" xmlns="http://www.w3.org/2000/svg">
<path d="M11.0464 15.0333C11.0464 14.7681 10.9411 14.5138 10.7536 14.3262C10.566 14.1387 10.3117 14.0333 10.0464 14.0333H3.10645C2.84123 14.0333 2.58687 14.1387 2.39934 14.3262C2.2118 14.5138 2.10645 14.7681 2.10645 15.0333C2.10645 15.2985 2.2118 15.5529 2.39934 15.7404C2.58687 15.928 2.84123 16.0333 3.10645 16.0333H10.0464C10.3117 16.0333 10.566 15.928 10.7536 15.7404C10.9411 15.5529 11.0464 15.2985 11.0464 15.0333Z" fill="white"/>
<path d="M12.0401 22H5.1001C4.83488 22 4.58053 22.1054 4.39299 22.2929C4.20545 22.4804 4.1001 22.7348 4.1001 23C4.1001 23.2652 4.20545 23.5196 4.39299 23.7071C4.58053 23.8946 4.83488 24 5.1001 24H12.0401C12.3053 24 12.5597 23.8946 12.7472 23.7071C12.9347 23.5196 13.0401 23.2652 13.0401 23C13.0401 22.7348 12.9347 22.4804 12.7472 22.2929C12.5597 22.1054 12.3053 22 12.0401 22Z" fill="white"/>
<path d="M29.9467 9.52662C29.9467 9.52662 29.9467 9.56662 29.9467 9.58662C29.9615 9.39064 29.9149 9.19492 29.8134 9.02662C29.747 8.91021 29.658 8.80832 29.5515 8.72701C29.4449 8.6457 29.3232 8.58662 29.1934 8.55329L19.4401 4.12662C19.3046 4.06254 19.1566 4.0293 19.0067 4.0293C18.8569 4.0293 18.7089 4.06254 18.5734 4.12662L8.40007 9.29329C8.23278 9.37589 8.09193 9.50363 7.99345 9.66209C7.89497 9.82054 7.84277 10.0034 7.84277 10.19C7.84277 10.3765 7.89497 10.5594 7.99345 10.7178C8.09193 10.8763 8.23278 11.004 8.40007 11.0866L14.5934 14L18.0467 15.6933L18.3201 26.6666L16.2067 25.4333C16.0929 25.3672 15.9672 25.3242 15.8368 25.3066C15.7063 25.2891 15.5737 25.2975 15.4465 25.3312C15.3193 25.365 15.1999 25.4234 15.0953 25.5033C14.9907 25.5831 14.9028 25.6828 14.8367 25.7966C14.7706 25.9104 14.7276 26.0362 14.7101 26.1666C14.6926 26.297 14.7009 26.4297 14.7347 26.5569C14.7684 26.6841 14.8269 26.8034 14.9067 26.908C14.9866 27.0127 15.0863 27.1005 15.2001 27.1666L18.8401 29.3333C18.9932 29.4249 19.1683 29.4733 19.3467 29.4733C19.5294 29.4731 19.7087 29.4248 19.8667 29.3333L29.4734 23.44C29.6207 23.3518 29.7425 23.2267 29.8267 23.077C29.9109 22.9274 29.9546 22.7583 29.9534 22.5866V9.54662C29.9534 9.54662 29.9467 9.53329 29.9467 9.52662ZM18.9934 13.9133L15.4601 12.2266L11.1734 10.1266L19.0534 6.12662L26.7267 9.61329L18.9934 13.9133ZM27.9534 22L20.3201 26.6666L20.0467 15.7733L27.9534 11.24V22Z" fill="white"/>
<path d="M29.9399 9.46667C29.9432 9.48654 29.9432 9.50681 29.9399 9.52668C29.9399 9.52668 29.9466 9.48001 29.9399 9.46667Z" fill="white"/>
<path d="M15.1065 19.0267C15.1065 18.7615 15.0011 18.5072 14.8136 18.3196C14.6261 18.1321 14.3717 18.0267 14.1065 18.0267H7.1665C6.90129 18.0267 6.64693 18.1321 6.4594 18.3196C6.27186 18.5072 6.1665 18.7615 6.1665 19.0267C6.1665 19.2919 6.27186 19.5463 6.4594 19.7338C6.64693 19.9214 6.90129 20.0267 7.1665 20.0267H14.1065C14.3717 20.0267 14.6261 19.9214 14.8136 19.7338C15.0011 19.5463 15.1065 19.2919 15.1065 19.0267Z" fill="white"/>
</svg>
