<svg width="24" height="24" viewBox="0 0 24 24" fill="none" xmlns="http://www.w3.org/2000/svg">
<path d="M21.25 4.5H15V3.25C15 2.78587 14.8156 2.34075 14.4874 2.01256C14.1592 1.68437 13.7141 1.5 13.25 1.5H10.75C10.2859 1.5 9.84075 1.68437 9.51256 2.01256C9.18437 2.34075 9 2.78587 9 3.25V4.5H2.25C2.05109 4.5 1.86032 4.57902 1.71967 4.71967C1.57902 4.86032 1.5 5.05109 1.5 5.25C1.5 5.44891 1.57902 5.63968 1.71967 5.78033C1.86032 5.92098 2.05109 6 2.25 6H3V9.5C3 9.89782 3.15804 10.2794 3.43934 10.5607C3.72064 10.842 4.10218 11 4.5 11V19.25C4.5 19.7141 4.68437 20.1592 5.01256 20.4874C5.34075 20.8156 5.78587 21 6.25 21H17.75C18.2141 21 18.6592 20.8156 18.9874 20.4874C19.3156 20.1592 19.5 19.7141 19.5 19.25V11C19.8978 11 20.2794 10.842 20.5607 10.5607C20.842 10.2794 21 9.89782 21 9.5V6H21.25C21.4489 6 21.6397 5.92098 21.7803 5.78033C21.921 5.63968 22 5.44891 22 5.25C22 5.05109 21.921 4.86032 21.7803 4.71967C21.6397 4.57902 21.4489 4.5 21.25 4.5ZM10.5 3.25C10.5 3.1837 10.5263 3.12011 10.5732 3.07322C10.6201 3.02634 10.6837 3 10.75 3H13.25C13.3163 3 13.3799 3.02634 13.4268 3.07322C13.4737 3.12011 13.5 3.1837 13.5 3.25V4.5H10.5V3.25ZM18 19.25C18 19.3163 17.9737 19.3799 17.9268 19.4268C17.8799 19.4737 17.8163 19.5 17.75 19.5H6.25C6.1837 19.5 6.12011 19.4737 6.07322 19.4268C6.02634 19.3799 6 19.3163 6 19.25V11H18V19.25ZM19.5 9.5H4.5V6H19.5V9.5Z" fill="#3188CA"/>
</svg>
