<svg width="32" height="32" viewBox="0 0 32 32" fill="none" xmlns="http://www.w3.org/2000/svg">
<path d="M4.97314 10.9999H24.2598L20.6265 14.6666C20.533 14.759 20.4587 14.869 20.408 14.9903C20.3573 15.1116 20.3312 15.2418 20.3312 15.3733C20.3312 15.5047 20.3573 15.6349 20.408 15.7562C20.4587 15.8775 20.533 15.9875 20.6265 16.0799C20.814 16.2672 21.0681 16.3724 21.3331 16.3724C21.5981 16.3724 21.8523 16.2672 22.0398 16.0799L27.3731 10.7466C27.5588 10.5582 27.6629 10.3044 27.6629 10.0399C27.6629 9.77547 27.5588 9.52162 27.3731 9.33327L22.0398 3.99993C21.8515 3.81428 21.5976 3.71021 21.3331 3.71021C21.0687 3.71021 20.8148 3.81428 20.6265 3.99993C20.533 4.09233 20.4587 4.20236 20.408 4.32367C20.3573 4.44497 20.3312 4.57513 20.3312 4.7066C20.3312 4.83807 20.3573 4.96823 20.408 5.08953C20.4587 5.21084 20.533 5.32088 20.6265 5.41327L24.2598 9.05327H4.97314C4.70793 9.05327 4.45357 9.15862 4.26604 9.34616C4.0785 9.5337 3.97314 9.78805 3.97314 10.0533C3.97314 10.3185 4.0785 10.5728 4.26604 10.7604C4.45357 10.9479 4.70793 11.0533 4.97314 11.0533V10.9999Z" fill="#5F6C7B"/>
<path d="M26.6666 21H7.38663L11.0266 17.3333C11.1249 17.2417 11.2037 17.1313 11.2583 17.0087C11.313 16.886 11.3424 16.7536 11.3448 16.6193C11.3471 16.4851 11.3224 16.3517 11.2721 16.2272C11.2218 16.1026 11.147 15.9895 11.052 15.8946C10.9571 15.7996 10.8439 15.7248 10.7194 15.6745C10.5949 15.6242 10.4615 15.5995 10.3273 15.6018C10.193 15.6042 10.0606 15.6336 9.93791 15.6883C9.81525 15.7429 9.70485 15.8217 9.6133 15.92L4.27996 21.2533C4.09431 21.4416 3.99023 21.6955 3.99023 21.96C3.99023 22.2244 4.09431 22.4783 4.27996 22.6666L9.6133 28C9.70585 28.0931 9.81596 28.167 9.93725 28.2174C10.0586 28.2677 10.1886 28.2935 10.32 28.2933C10.5024 28.2804 10.6777 28.2177 10.827 28.1121C10.9762 28.0065 11.0937 27.8619 11.1665 27.6942C11.2394 27.5265 11.2649 27.3421 11.2402 27.1609C11.2155 26.9797 11.1417 26.8088 11.0266 26.6666L7.38663 23H26.6666C26.9318 23 27.1862 22.8946 27.3737 22.7071C27.5613 22.5195 27.6666 22.2652 27.6666 22C27.6666 21.7347 27.5613 21.4804 27.3737 21.2929C27.1862 21.1053 26.9318 21 26.6666 21Z" fill="#5F6C7B"/>
</svg>
