<svg width="24" height="24" viewBox="0 0 24 24" fill="none" xmlns="http://www.w3.org/2000/svg">
<path d="M20.7498 8.55521H17.1398C16.9409 8.55521 16.7501 8.63423 16.6095 8.77488C16.4688 8.91553 16.3898 9.1063 16.3898 9.30521V12.5002H15.4998V8.58521C15.4993 8.18704 15.3634 7.80088 15.1145 7.49014C14.8655 7.1794 14.5183 6.96256 14.1298 6.87521C14.096 6.77908 14.0433 6.69069 13.9748 6.61521L9.97482 2.31521C9.90499 2.23901 9.81997 2.17829 9.72524 2.13696C9.63051 2.09562 9.52817 2.07459 9.42482 2.07521C9.32161 2.07549 9.21955 2.09694 9.12495 2.13822C9.03035 2.1795 8.94522 2.23974 8.87482 2.31521L7.49982 3.81521L7.33482 3.62521C7.2665 3.54408 7.18165 3.47847 7.08594 3.43277C6.99023 3.38706 6.88586 3.36233 6.77982 3.36021C6.67417 3.35903 6.56943 3.37975 6.47219 3.42105C6.37495 3.46236 6.28732 3.52336 6.21482 3.60021L3.21482 6.83521C2.97854 6.84356 2.74641 6.89971 2.53243 7.00025C2.31845 7.1008 2.12706 7.24366 1.96982 7.42021C1.80576 7.59666 1.67946 7.80475 1.59864 8.03172C1.51782 8.2587 1.4842 8.49978 1.49982 8.74021V12.1052C1.49736 12.1352 1.49736 12.1653 1.49982 12.1952V16.9452C1.49982 17.4093 1.68419 17.8545 2.01238 18.1826C2.34057 18.5108 2.78569 18.6952 3.24982 18.6952H4.55982C4.62271 19.3312 4.91984 19.921 5.39343 20.3501C5.86703 20.7792 6.48326 21.0168 7.12232 21.0168C7.76138 21.0168 8.37761 20.7792 8.8512 20.3501C9.3248 19.921 9.62193 19.3312 9.68482 18.6952H15.2848C15.3415 19.3364 15.6363 19.9331 16.111 20.3678C16.5858 20.8024 17.2061 21.0435 17.8498 21.0435C18.4935 21.0435 19.1138 20.8024 19.5886 20.3678C20.0634 19.9331 20.3581 19.3364 20.4148 18.6952H20.7498C21.2139 18.6952 21.6591 18.5108 21.9873 18.1826C22.3154 17.8545 22.4998 17.4093 22.4998 16.9452V10.3052C22.4998 9.84108 22.3154 9.39596 21.9873 9.06777C21.6591 8.73958 21.2139 8.55521 20.7498 8.55521ZM9.41982 3.92521L12.1048 6.83021H9.99982C9.9713 6.7599 9.93255 6.69419 9.88482 6.63521L8.45482 4.96021L9.41982 3.92521ZM6.71482 5.24021L6.84982 5.39521C6.87366 5.43228 6.90041 5.46739 6.92982 5.50021H6.95982L8.07982 6.81021H5.23982L6.71482 5.24021ZM3.06482 8.41521C3.08831 8.38796 3.11751 8.36622 3.15034 8.35153C3.18318 8.33684 3.21885 8.32956 3.25482 8.33021H13.7198C13.7533 8.33021 13.7865 8.3368 13.8174 8.34962C13.8483 8.36243 13.8765 8.38122 13.9001 8.4049C13.9238 8.42858 13.9426 8.45669 13.9554 8.48762C13.9682 8.51856 13.9748 8.55172 13.9748 8.58521V12.5002H2.99982V8.70021C3.0023 8.67026 3.0023 8.64016 2.99982 8.61021C2.99653 8.57497 3.00061 8.53944 3.0118 8.50587C3.02299 8.4723 3.04105 8.44142 3.06482 8.41521ZM7.11982 19.5002C6.90424 19.5002 6.6935 19.4363 6.51425 19.3165C6.335 19.1967 6.19529 19.0265 6.11279 18.8273C6.03029 18.6282 6.0087 18.409 6.05076 18.1976C6.09282 17.9861 6.19663 17.7919 6.34907 17.6395C6.50151 17.487 6.69573 17.3832 6.90717 17.3412C7.11861 17.2991 7.33777 17.3207 7.53694 17.4032C7.73612 17.4857 7.90635 17.6254 8.02612 17.8046C8.14589 17.9839 8.20982 18.1946 8.20982 18.4102C8.2085 18.6989 8.09324 18.9754 7.88911 19.1795C7.68498 19.3836 7.4085 19.4989 7.11982 19.5002ZM16.3898 16.2752C16.0564 16.5099 15.7811 16.8178 15.5848 17.1752H9.38482C9.16517 16.7655 8.83853 16.4231 8.43967 16.1844C8.0408 15.9456 7.58466 15.8196 7.11982 15.8196C6.65497 15.8196 6.19883 15.9456 5.79997 16.1844C5.40111 16.4231 5.07446 16.7655 4.85482 17.1752H3.25482C3.18851 17.1752 3.12493 17.1489 3.07804 17.102C3.03116 17.0551 3.00482 16.9915 3.00482 16.9252V14.0002H16.3898V16.2752ZM17.8498 19.5002C17.6342 19.5002 17.4235 19.4363 17.2442 19.3165C17.065 19.1967 16.9253 19.0265 16.8428 18.8273C16.7603 18.6282 16.7387 18.409 16.7808 18.1976C16.8228 17.9861 16.9266 17.7919 17.0791 17.6395C17.2315 17.487 17.4257 17.3832 17.6372 17.3412C17.8486 17.2991 18.0678 17.3207 18.2669 17.4032C18.4661 17.4857 18.6364 17.6254 18.7561 17.8046C18.8759 17.9839 18.9398 18.1946 18.9398 18.4102C18.9385 18.6989 18.8232 18.9754 18.6191 19.1795C18.415 19.3836 18.1385 19.4989 17.8498 19.5002ZM20.9998 16.9452C20.9998 17.0115 20.9735 17.0751 20.9266 17.122C20.8797 17.1689 20.8161 17.1952 20.7498 17.1952H20.1148C19.8961 16.7939 19.575 16.4576 19.1842 16.2204C18.7934 15.9833 18.3468 15.8539 17.8898 15.8452V14.0002H20.9998V16.9452ZM20.9998 12.5002H17.8898V10.0552H20.7498C20.8157 10.0565 20.8786 10.0832 20.9252 10.1298C20.9718 10.1765 20.9985 10.2393 20.9998 10.3052V12.5002Z" fill="white"/>
</svg>
