<svg width="32" height="32" viewBox="0 0 32 32" fill="none" xmlns="http://www.w3.org/2000/svg">
<path d="M15.9998 7.33337C14.945 7.33337 13.9139 7.64617 13.0368 8.2322C12.1597 8.81824 11.4761 9.65119 11.0725 10.6257C10.6688 11.6003 10.5632 12.6726 10.769 13.7072C10.9748 14.7418 11.4827 15.6921 12.2286 16.4379C12.9745 17.1838 13.9248 17.6918 14.9594 17.8976C15.9939 18.1033 17.0663 17.9977 18.0408 17.5941C19.0154 17.1904 19.8483 16.5068 20.4343 15.6297C21.0204 14.7527 21.3332 13.7215 21.3332 12.6667C21.3332 11.2522 20.7713 9.89566 19.7711 8.89547C18.7709 7.89528 17.4143 7.33337 15.9998 7.33337ZM15.9998 16C15.3406 16 14.6961 15.8045 14.1479 15.4383C13.5998 15.072 13.1725 14.5514 12.9202 13.9423C12.6679 13.3332 12.6019 12.663 12.7306 12.0164C12.8592 11.3698 13.1766 10.7759 13.6428 10.3097C14.109 9.84351 14.7029 9.52604 15.3495 9.39742C15.9961 9.26881 16.6664 9.33482 17.2755 9.58711C17.8845 9.8394 18.4051 10.2666 18.7714 10.8148C19.1377 11.363 19.3332 12.0074 19.3332 12.6667C19.3332 13.1044 19.247 13.5379 19.0794 13.9423C18.9119 14.3467 18.6664 14.7142 18.3569 15.0237C18.0473 15.3333 17.6799 15.5788 17.2755 15.7463C16.871 15.9138 16.4376 16 15.9998 16Z" fill="#5F6C7B"/>
<path d="M16 2C13.2311 2 10.5243 2.82109 8.22202 4.35943C5.91973 5.89777 4.12532 8.08427 3.06569 10.6424C2.00607 13.2006 1.72882 16.0155 2.26901 18.7313C2.80921 21.447 4.14258 23.9416 6.10051 25.8995C8.05845 27.8574 10.553 29.1908 13.2687 29.731C15.9845 30.2712 18.7994 29.9939 21.3576 28.9343C23.9157 27.8747 26.1022 26.0803 27.6406 23.778C29.1789 21.4757 30 18.7689 30 16C30 12.287 28.525 8.72601 25.8995 6.10051C23.274 3.475 19.713 2 16 2ZM16 28C13.0886 27.9944 10.2785 26.9306 8.09334 25.0067C8.12253 24.9402 8.14487 24.871 8.16001 24.8C8.34468 23.9171 8.82674 23.1242 9.52564 22.5539C10.2245 21.9837 11.098 21.6705 12 21.6667H20C20.9106 21.6668 21.7929 21.9833 22.4958 22.5622C23.1988 23.1411 23.6786 23.9463 23.8533 24.84C23.8685 24.896 23.8909 24.9498 23.92 25C21.7346 26.9331 18.9177 28.0001 16 28ZM25.4733 23.3333C25.0239 22.2508 24.2646 21.3252 23.2908 20.6728C22.317 20.0204 21.1721 19.6704 20 19.6667H12C10.8281 19.6713 9.68358 20.0216 8.70993 20.6739C7.73628 21.3262 6.9768 22.2513 6.52667 23.3333C5.35329 21.8242 4.55743 20.0566 4.20534 18.1777C3.85326 16.2988 3.95515 14.363 4.50253 12.5314C5.04991 10.6998 6.02694 9.02553 7.35226 7.64793C8.67758 6.27033 10.3128 5.22928 12.1219 4.61149C13.9309 3.99369 15.8613 3.81701 17.7525 4.09617C19.6436 4.37533 21.4406 5.10225 22.994 6.21639C24.5474 7.33053 25.8121 8.79966 26.6828 10.5014C27.5536 12.2032 28.0052 14.0884 28 16C27.9994 18.6579 27.11 21.2392 25.4733 23.3333Z" fill="#5F6C7B"/>
</svg>
