<svg width="40" height="40" viewBox="0 0 40 40" fill="none" xmlns="http://www.w3.org/2000/svg">
<path d="M16.5 17.5H18.25V19.25H16.5V17.5ZM21.75 28H23.5V29.75H21.75V28ZM27 17.5H28.75V19.25H27V17.5ZM21.75 17.5H23.5V19.25H21.75V17.5ZM16.5 21H18.25V22.75H16.5V21ZM11.25 21H13V22.75H11.25V21ZM27 21H28.75V22.75H27V21ZM21.75 21H23.5V22.75H21.75V21ZM16.5 24.5H18.25V26.25H16.5V24.5ZM11.25 24.5H13V26.25H11.25V24.5ZM27 24.5H28.75V26.25H27V24.5ZM21.75 24.5H23.5V26.25H21.75V24.5ZM16.5 28H18.25V29.75H16.5V28ZM11.25 28H13V29.75H11.25V28ZM34 8.75V33.25H6V8.75H11.25V7H13V8.75H27V7H28.75V8.75H34ZM7.75 10.5V14H32.25V10.5H28.75V12.25H27V10.5H13V12.25H11.25V10.5H7.75ZM32.25 31.5V15.75H7.75V31.5H32.25Z" fill="#3188CA"/>
</svg>
