<svg width="26" height="26" viewBox="0 0 26 26" fill="none" xmlns="http://www.w3.org/2000/svg">
<path d="M13 26C11.8006 26 10.6447 25.8452 9.53237 25.5357C8.42969 25.2262 7.39472 24.7909 6.42745 24.2299C5.46987 23.6592 4.59449 22.9821 3.80134 22.1987C3.01786 21.4055 2.34077 20.5301 1.77009 19.5725C1.20908 18.6053 0.773809 17.5703 0.464286 16.4676C0.154762 15.3553 0 14.1994 0 13C0 11.8006 0.154762 10.6496 0.464286 9.54688C0.773809 8.43452 1.20908 7.39955 1.77009 6.44196C2.34077 5.4747 3.01786 4.59933 3.80134 3.81585C4.59449 3.02269 5.46987 2.34561 6.42745 1.7846C7.39472 1.21391 8.42969 0.773809 9.53237 0.464286C10.6447 0.154762 11.8006 0 13 0C14.1994 0 15.3504 0.154762 16.4531 0.464286C17.5655 0.773809 18.6004 1.21391 19.558 1.7846C20.5253 2.34561 21.4007 3.02269 22.1842 3.81585C22.9773 4.59933 23.6544 5.4747 24.2154 6.44196C24.7861 7.39955 25.2262 8.43452 25.5357 9.54688C25.8452 10.6496 26 11.8006 26 13C26 14.1994 25.8452 15.3553 25.5357 16.4676C25.2262 17.5703 24.7861 18.6053 24.2154 19.5725C23.6544 20.5301 22.9773 21.4055 22.1842 22.1987C21.4007 22.9821 20.5253 23.6592 19.558 24.2299C18.6004 24.7909 17.5655 25.2262 16.4531 25.5357C15.3504 25.8452 14.1994 26 13 26ZM13 1.85714C11.4621 1.85714 10.016 2.15216 8.66183 2.74219C7.31734 3.32254 6.13728 4.12054 5.12165 5.13616C4.1157 6.14211 3.31771 7.32217 2.72768 8.67634C2.14732 10.0208 1.85714 11.4621 1.85714 13C1.85714 14.5379 2.14732 15.984 2.72768 17.3382C3.31771 18.6827 4.1157 19.8627 5.12165 20.8783C6.13728 21.8843 7.31734 22.6823 8.66183 23.2723C10.016 23.8527 11.4621 24.1429 13 24.1429C14.5379 24.1429 15.9792 23.8527 17.3237 23.2723C18.6778 22.6823 19.8579 21.8843 20.8638 20.8783C21.8795 19.8627 22.6775 18.6827 23.2578 17.3382C23.8478 15.984 24.1429 14.5379 24.1429 13C24.1429 11.4621 23.8478 10.0208 23.2578 8.67634C22.6775 7.32217 21.8795 6.14211 20.8638 5.13616C19.8579 4.12054 18.6778 3.32254 17.3237 2.74219C15.9792 2.15216 14.5379 1.85714 13 1.85714ZM13 13V5.57143H11.1429V14.8571H18.5714V13H13Z" fill="#3188CA"/>
</svg>
