<svg width="40" height="40" viewBox="0 0 40 40" fill="none" xmlns="http://www.w3.org/2000/svg">
<path d="M21.375 7C22.2591 7 23.1113 7.11393 23.9316 7.3418C24.752 7.56966 25.5176 7.89323 26.2285 8.3125C26.9395 8.73177 27.5866 9.23763 28.1699 9.83008C28.7624 10.4134 29.2682 11.0605 29.6875 11.7715C30.1068 12.4824 30.4303 13.248 30.6582 14.0684C30.8861 14.8887 31 15.7409 31 16.625C31 17.5091 30.8861 18.3613 30.6582 19.1816C30.4303 20.002 30.1068 20.7676 29.6875 21.4785C29.2682 22.1895 28.7624 22.8411 28.1699 23.4336C27.5866 24.0169 26.9395 24.5182 26.2285 24.9375C25.5176 25.3568 24.752 25.6803 23.9316 25.9082C23.1113 26.1361 22.2591 26.25 21.375 26.25C20.2357 26.25 19.1419 26.0586 18.0938 25.6758C17.0547 25.293 16.0977 24.7415 15.2227 24.0215L4.49023 34.7402C4.31706 34.9134 4.11198 35 3.875 35C3.63802 35 3.43294 34.9134 3.25977 34.7402C3.08659 34.5671 3 34.362 3 34.125C3 33.888 3.08659 33.6829 3.25977 33.5098L13.9785 22.7773C13.2585 21.9023 12.707 20.9453 12.3242 19.9062C11.9414 18.8581 11.75 17.7643 11.75 16.625C11.75 15.7409 11.8639 14.8887 12.0918 14.0684C12.3197 13.248 12.6432 12.4824 13.0625 11.7715C13.4818 11.0605 13.9831 10.4134 14.5664 9.83008C15.1589 9.23763 15.8105 8.73177 16.5215 8.3125C17.2324 7.89323 17.998 7.56966 18.8184 7.3418C19.6387 7.11393 20.4909 7 21.375 7ZM21.375 24.5C22.4596 24.5 23.4805 24.2949 24.4375 23.8848C25.3945 23.4655 26.2285 22.9004 26.9395 22.1895C27.6504 21.4785 28.2109 20.6445 28.6211 19.6875C29.0404 18.7305 29.25 17.7096 29.25 16.625C29.25 15.5404 29.0404 14.5195 28.6211 13.5625C28.2109 12.6055 27.6504 11.7715 26.9395 11.0605C26.2285 10.3496 25.3945 9.78906 24.4375 9.37891C23.4805 8.95964 22.4596 8.75 21.375 8.75C20.2904 8.75 19.2695 8.95964 18.3125 9.37891C17.3555 9.78906 16.5215 10.3496 15.8105 11.0605C15.0996 11.7715 14.5345 12.6055 14.1152 13.5625C13.7051 14.5195 13.5 15.5404 13.5 16.625C13.5 17.7096 13.7051 18.7305 14.1152 19.6875C14.5345 20.6445 15.0996 21.4785 15.8105 22.1895C16.5215 22.9004 17.3555 23.4655 18.3125 23.8848C19.2695 24.2949 20.2904 24.5 21.375 24.5Z" fill="#3188CA"/>
</svg>
